<?xml version="1.0" encoding="utf-8"?>
<!-- Svg Vector Icons : http://www.onlinewebfonts.com/icon -->
<!DOCTYPE svg PUBLIC "-//W3C//DTD SVG 1.1//EN" "http://www.w3.org/Graphics/SVG/1.1/DTD/svg11.dtd">
<svg version="1.1" xmlns="http://www.w3.org/2000/svg" xmlns:xlink="http://www.w3.org/1999/xlink" x="0px" y="0px" viewBox="0 0 1000 1000" enable-background="new 0 0 1000 1000" xml:space="preserve">
<metadata> Svg Vector Icons : http://www.onlinewebfonts.com/icon </metadata>
<g><g><path d="M500,10C229.4,10,10,229.4,10,500c0,270.6,219.4,490,490,490c270.6,0,490-219.4,490-490C990,229.4,770.6,10,500,10z M500,913.4C271.7,913.4,86.6,728.3,86.6,500S271.7,86.6,500,86.6S913.4,271.7,913.4,500S728.3,913.4,500,913.4z"/><path d="M481.6,587.2c-16.1-1.8-34.5,30.3-44.4,42.7c-9.9,12.4-48.3,56.2-48.7,67.9c-0.3,11.7,20.5,24.1,49,35.9c28.5,11.7,60.7,20,62-5.2c1.2-25.2,0-95.8,0-103.7C499.6,616.8,500.2,589.2,481.6,587.2z"/><path d="M457.6,532.1c0-13.8-38.5-33.1-38.5-33.1s-70.4-33.8-83.4-32.4c-13,1.4-18.1,38.6-19.2,65.6c-3.1,75.8,30.1,56.2,30.1,56.2s69.8-24.8,83.5-30.3C443.6,552.4,457.6,545.8,457.6,532.1z"/><path d="M477,471.3c12.7,1,21.7-8.6,21.7-25.1c0-16.6,5.6-174.8-6.2-186.3c-11.8-11.3-58-0.4-70.7,4.2c-27,9.8-57,25.1-57.7,38.2C363.6,315.5,464.4,470.3,477,471.3z"/><path d="M585.9,510.3c22.6-4.8,95.8-20,97.3-40.7c1.5-20.6-42.5-92.4-60.8-92.4c-10.5,0.4-90.6,106.9-77.2,126.9C553.6,516.6,563.2,515.2,585.9,510.3z"/><path d="M662.1,597.5c-14.9-5.8-96.8-46.5-111-29.3c-9.1,11-3.4,28.9,6.2,46.2c9.6,17.2,44.4,75.5,44.4,75.5s6.2,15.5,17,15.5s32.3-22.5,43.1-39.4s22-37.1,22-48.2C683.8,606.8,676.9,603.4,662.1,597.5z"/></g></g>
</svg>